<svg xmlns="http://www.w3.org/2000/svg" viewBox="0 0 400 400"><circle cx="200" cy="200" r="168" fill="#8FD0FF"/><circle cx="368.0" cy="200.0" r="26" fill="#8FD0FF"/><circle cx="359.8" cy="251.9" r="26" fill="#8FD0FF"/><circle cx="335.9" cy="298.7" r="26" fill="#8FD0FF"/><circle cx="298.7" cy="335.9" r="26" fill="#8FD0FF"/><circle cx="251.9" cy="359.8" r="26" fill="#8FD0FF"/><circle cx="200.0" cy="368.0" r="26" fill="#8FD0FF"/><circle cx="148.1" cy="359.8" r="26" fill="#8FD0FF"/><circle cx="101.3" cy="335.9" r="26" fill="#8FD0FF"/><circle cx="64.1" cy="298.7" r="26" fill="#8FD0FF"/><circle cx="40.2" cy="251.9" r="26" fill="#8FD0FF"/><circle cx="32.0" cy="200.0" r="26" fill="#8FD0FF"/><circle cx="40.2" cy="148.1" r="26" fill="#8FD0FF"/><circle cx="64.1" cy="101.3" r="26" fill="#8FD0FF"/><circle cx="101.3" cy="64.1" r="26" fill="#8FD0FF"/><circle cx="148.1" cy="40.2" r="26" fill="#8FD0FF"/><circle cx="200.0" cy="32.0" r="26" fill="#8FD0FF"/><circle cx="251.9" cy="40.2" r="26" fill="#8FD0FF"/><circle cx="298.7" cy="64.1" r="26" fill="#8FD0FF"/><circle cx="335.9" cy="101.3" r="26" fill="#8FD0FF"/><circle cx="359.8" cy="148.1" r="26" fill="#8FD0FF"/><circle cx="200" cy="200" r="138" fill="none" stroke="#1B3BFF" stroke-width="8"/><circle cx="200" cy="200" r="100" fill="#FF6A4D"/><circle cx="200" cy="200" r="76" fill="none" stroke="#0A1A5C" stroke-width="5" stroke-dasharray="10 8"/></svg>